<?xml version="1.0" encoding="utf-8"?>
<!-- Generator: Adobe Illustrator 26.4.1, SVG Export Plug-In . SVG Version: 6.00 Build 0)  -->
<svg version="1.1" id="Capa_1" xmlns="http://www.w3.org/2000/svg" xmlns:xlink="http://www.w3.org/1999/xlink" x="0px" y="0px"
	 viewBox="0 0 100 100" style="enable-background:new 0 0 100 100;" xml:space="preserve">
<style type="text/css">
	.st0{fill:#3CFFFB;}
</style>
<g>
	<path class="st0" d="M5.2,83.6c-1.1,0-2.2-0.4-3-1.2c-1.7-1.7-1.7-4.3,0-6l30.9-30.9L2.2,14.5c-1.7-1.7-1.7-4.3,0-6s4.3-1.7,6,0
		l33.9,33.9c1.7,1.7,1.7,4.3,0,6L8.2,82.4C7.4,83.2,6.3,83.6,5.2,83.6z"/>
</g>
<g>
	<path class="st0" d="M95.8,94.9H50.5c-2.3,0-4.2-1.9-4.2-4.2c0-2.3,1.9-4.2,4.2-4.2h45.3c2.3,0,4.2,1.9,4.2,4.2
		C100,93,98.1,94.9,95.8,94.9z"/>
</g>
</svg>
