<?xml version="1.0" encoding="utf-8"?>
<!-- Generator: Adobe Illustrator 26.4.1, SVG Export Plug-In . SVG Version: 6.00 Build 0)  -->
<svg version="1.1" id="Capa_1" xmlns="http://www.w3.org/2000/svg" xmlns:xlink="http://www.w3.org/1999/xlink" x="0px" y="0px"
	 viewBox="0 0 181 500" style="enable-background:new 0 0 181 500;" xml:space="preserve">
<style type="text/css">
	.st0{opacity:0.19;}
	.st1{fill:#00FFFF;}
	.st2{fill:url(#SVGID_1_);}
</style>
<g>
	<g>
		<g>
			<g>
				<g id="XMLID_00000070091274164820401130000010114246714689707172_" class="st0">
					<g>
						<g>
							<path class="st1" d="M111,206.4c0,0.8-0.2,24.1-0.5,26.6l0,0l-0.1,0.2c-0.2-0.3-0.4-0.5-0.7-0.8l-0.1,0.1
								c-2.4-4.1-2.2-9.2-1.3-13.8C109.2,214.5,110.5,210.5,111,206.4z"/>
						</g>
						<g>
							<path class="st1" d="M66.7,230.4L66.7,230.4c-0.2-0.5-0.3-1-0.3-1.5c-0.4-3,0.4-6,1.2-8.9c0,0.1,0.1,0,0.3,0
								c0.9,0.3,3.4,2.1,3.4,2.1L66.7,230.4z"/>
						</g>
						<g>
							<path class="st1" d="M67.6,220L67.6,220c2.1-7.7,4.5-15.4,6.4-23.2l0.3,13.8L67.6,220z"/>
						</g>
						<g>
							<path class="st1" d="M108.8,143.9c-0.1,2.7,1.8,18.8,1.8,19.4c-0.2-1.1-0.5-2.2-0.9-3.2c-0.5-1.4-1.2-2.8-2.2-3.9
								c-1.1-1-2.7-1.6-4.1-1.2c-0.8,0.2-1.4,0.7-1.9,1.3C101.4,156.3,107.9,146,108.8,143.9z"/>
						</g>
						<g>
							<path class="st1" d="M54.3,203.4l-2.5,7l0,0c-1-3.6-0.7-7.5-0.4-11.3c0.2-3.2,0.3-6.4,1.6-9.3l1.9,6.3l3,7.4L54.3,203.4z"/>
						</g>
						<g>
							<path class="st1" d="M133.2,129.7l-5.6-45.8l0.9,1c1.1,2.3,2.1,4.5,3.2,6.8c0.8,1.7,1.6,3.3,2.1,5.1c1.4,4.5,1,9.4,0.7,14.1
								c-0.2,2.6-0.4,5.1-0.6,7.7C133.7,122.3,133.5,126,133.2,129.7z"/>
						</g>
						<g>
							<path class="st1" d="M62.3,176.4L53,189.8l1.9-22.9l8.2-4.2c-0.3,0.4-3.9,5.5-3.9,5.5L62.3,176.4z"/>
						</g>
						<g>
							<path class="st1" d="M46.4,182.5l6.6,7.2c-1,0.6-2.3-0.2-3.1-1.1c-1.7-1.8-2.9-3.8-3.8-6L46.4,182.5z"/>
						</g>
						<g>
							<path class="st1" d="M82.6,156.6l-1.8,24.8c-0.4,0.4-6.9,15.4-6.9,15.4c0.6-2.7,1.2-5.4,1.7-8.1c1-6,1.6-12.1,3.1-18
								c0.9-3.7,2.1-7.2,3.2-10.8C82.2,158.8,82.5,157.7,82.6,156.6z"/>
						</g>
						<g>
							<path class="st1" d="M47.1,180.8l-0.7,1.7l-0.4,0.2c-1.8-4.3-2.4-9.3-2.8-14.1c-0.5-4.7-0.9-9.5-0.8-14.2
								c0-0.4,0-0.9,0.1-1.3L47.1,180.8z"/>
						</g>
						<g>
							<path class="st1" d="M63,162.6l-8.2,4.2l11.4-36.2l7.6-1.4C73.8,129.2,63.3,162.2,63,162.6z"/>
						</g>
						<g>
							<polygon class="st1" points="59.1,150.2 62.8,130.9 62.4,114.6 73.9,117.5 73.8,129.2 66.3,130.6 54.9,166.9 58.2,153.6 
															"/>
						</g>
						<g>
							<path class="st1" d="M46.7,151.9l-4.3,1.3c0.3-4.9,1.1-9.7,1.7-14.6c0.5-3.7,0.8-7.4,1-11.1l5.4,1.9
								C49,138.6,46.7,151.5,46.7,151.9z"/>
						</g>
						<g>
							<path class="st1" d="M62.4,114.6l-10.1,5.3l-7.1,7.5c0.6-9.7,0.6-19.4,0.7-29.1L62.4,114.6z"/>
						</g>
						<g>
							<path class="st1" d="M45.9,98.4c0-1,0-2,0-3c0.1-7.3,0.3-14.7,1.8-21.8c0.4-2.1,1-4.2,1.6-6.3c0,0,3.5,17,3.2,17.4l0,0
								C52.1,84.7,45.9,98.4,45.9,98.4z"/>
						</g>
						<g>
							<polygon class="st1" points="74.4,67.2 49.3,67.3 60.4,44 							"/>
						</g>
						<g>
							<path class="st1" d="M49.3,67.3c1.5-5.2,3.2-10.3,4.1-15.6c1.1-6.4,1.7-14-1.5-19.6L60.4,44L49.3,67.3z"/>
						</g>
					</g>
				</g>
				<g id="XMLID_00000043435333453567253390000005825299137690087838_">
					<g>
						<g>
							<path class="st1" d="M58.3,16.9c2.1-1.8,4.7-3.6,7.9-5.3c4.5-2.4,9.3-4.2,14.4-5.3C86.7,5,93,4.7,99.2,5.4
								c6.5,0.8,10.9,2.9,13.1,6.5l0,0V12c-0.5,2.6,0.3,4.9,1.2,7.1c0.3,0.7,0.6,1.4,0.9,2.1c0.9,2,1.8,4.1,2.2,6.4
								c0.3,1.7,0.2,3.5,0.1,5.3c0,0.4,0,0.9-0.1,1.3c-0.1,1.5,0,3.1,0,4.7c0.2,4.3,1,8.9,2.3,14.1h-0.2c-1.3-5.2-2.1-9.8-2.3-14.2
								c-0.1-1.6-0.1-3.2-0.1-4.8c0-0.4,0-0.9,0.1-1.3c0.1-1.7,0.2-3.5-0.1-5.2c-0.4-2.2-1.3-4.3-2.2-6.3c-0.3-0.7-0.6-1.4-0.9-2.1
								c-0.8-2-1.6-4.5-1.2-7.2c-2.2-3.4-6.5-5.6-12.8-6.3c-6.2-0.7-12.4-0.4-18.6,1c-5,1.1-9.8,2.9-14.3,5.2
								c-10.4,5.5-14.4,12.2-16,16.8l0,0l-0.1,0.1c0.6,0.7,1.2,1.5,1.7,2.4c3.3,5.9,2.4,14.1,1.5,19.7c-0.7,4-1.9,8-3,11.8
								c-0.4,1.2-0.7,2.5-1.1,3.8c-0.7,2.4-1.2,4.4-1.6,6.2C46.2,79.8,46,87,45.9,94.4c0,1,0,2,0,3c0,1.4,0,2.7,0,4.1
								c-0.1,8.2-0.2,16.7-0.7,25c-0.3,4-0.6,7.6-1,11.1c-0.2,1.4-0.4,2.8-0.6,4.2c-0.5,3.4-1,6.9-1.1,10.4c0,0.5,0,0.9-0.1,1.3
								c-0.1,4.7,0.3,9.5,0.8,14.1v0.1c0.5,5,1.1,9.8,2.8,14c1,2.4,2.2,4.3,3.8,6c0.4,0.4,1.8,1.7,3,1.1l0.4-0.2L53,189
								c-1.1,2.5-1.3,5.4-1.5,8.1c0,0.4-0.1,0.8-0.1,1.1c-0.3,3.5-0.6,7.6,0.4,11.2c0.1,0.4,0.2,0.7,0.3,1.1c0.5,1.5,1.5,3.3,3.3,4
								c1.4,0.5,3.2,0.2,4.9-0.9c0.2-0.1,0.4-0.3,0.6-0.4c2.8-2.2,4.1-5.6,4.7-8.1c0.6-2.4,0.8-4.9,1-7.3c0.1-1,0.2-2,0.3-3
								c0.3-2.5,0.7-5.2,1.4-8.2l0.3,0.1c-0.7,3-1.1,5.7-1.4,8.2c-0.1,1-0.2,2-0.3,3c-0.2,2.4-0.4,4.9-1,7.3c-0.6,2.5-1.9,6-4.8,8.3
								c-0.2,0.2-0.4,0.3-0.6,0.4c-1.7,1.2-3.6,1.5-5.1,1c-1.9-0.7-2.9-2.6-3.4-4.2c-0.1-0.4-0.2-0.7-0.3-1.1
								c-1-3.7-0.7-7.8-0.4-11.3c0-0.4,0.1-0.8,0.1-1.1c0.2-2.6,0.4-5.4,1.4-7.9c-1.3,0.4-2.6-0.8-3-1.3c-1.6-1.7-2.8-3.6-3.8-6
								c-1.8-4.3-2.3-9.1-2.8-14.1v-0.1c-0.5-4.6-0.9-9.4-0.8-14.2c0-0.4,0-0.9,0.1-1.3c0.2-3.5,0.7-7,1.1-10.4
								c0.2-1.4,0.4-2.8,0.6-4.2c0.4-3.5,0.8-7.1,1-11.1c0.5-8.3,0.6-16.8,0.7-25c0-1.4,0-2.7,0-4.1c0-1,0-2,0-3
								c0.1-7.4,0.3-14.7,1.8-21.8c0.4-1.8,0.9-3.8,1.6-6.3c0.4-1.3,0.7-2.6,1.1-3.8c1.1-3.8,2.3-7.8,3-11.7
								c1-5.6,1.9-13.6-1.4-19.5c-0.5-0.9-1.1-1.7-1.7-2.4l-0.1-0.1l0.3-0.2C51.1,25.3,53.5,21,58.3,16.9z"/>
						</g>
						<g>
							<path class="st1" d="M118.7,53h0.3c0.4,1.5,0.8,3.1,1.3,4.6c0.3,1,0.6,2.1,1,3.2c0.7,2.4,1.5,4.7,2.3,7
								c1.4,4.1,2.8,8.4,3.9,12.6c0.2,0.9,0.3,1.7,0.1,2.5l0.9,1l0,0c0.7,1.4,1.3,2.8,2,4.2l1.2,2.6c0.7,1.5,1.5,3.3,2.1,5.1
								c1.4,4.6,1,9.7,0.7,14.2l-0.6,7.7c-0.3,4.1-0.5,7.8-0.7,11.1h-0.3c0.2-3.4,0.4-7,0.7-11.1l0.6-7.7c0.3-4.4,0.7-9.5-0.7-14.1
								c-0.5-1.8-1.3-3.4-2.1-5.1l-1.2-2.6c-0.6-1.4-1.3-2.8-1.9-4.2l-1-1.1v-0.1c0.2-0.7,0.1-1.5-0.1-2.4
								c-1.2-4.2-2.6-8.5-3.9-12.6c-0.8-2.3-1.6-4.7-2.3-7c-0.4-1.1-0.7-2.2-1-3.2C119.5,56.1,119.1,54.5,118.7,53z"/>
						</g>
						<g>
							<path class="st1" d="M132.9,128.8h0.3c-0.5,9.3-0.7,17.5-0.6,25l0.3,0.4l0,0c1.7,6.9,3.3,13.7,5,20.6
								c0.2,0.8,0.4,1.8,0.3,2.8c-0.2,0.9-0.8,1.9-1.8,2.1c-0.4,0.1-0.8,0-1.2,0c-0.6-0.1-1.1-0.2-1.5,0.2c-0.2,0.1-0.3,0.3-0.4,0.6
								c-0.1,0.4-0.1,0.9-0.1,1.4v0.1c0.2,2.5-0.7,4.8-1.5,7.2c-0.3,0.8-0.6,1.6-0.8,2.5c-0.6,2.1-1,4.3-1.3,6.4L128,208
								c-0.7,4.4-1.4,8.8-2.1,13.2c-0.3,2.1-0.7,4.4-1.6,6.4c-0.8,1.9-2,3.6-3.1,5c-0.2,0.3-0.4,0.5-0.7,0.8l0,0
								c-1.2,1.4-2.6,3-4.5,3.2c-1.3,0.2-2.8-0.4-4-1.5c-0.6-0.6-1.1-1.2-1.6-1.9c-0.2-0.2-0.3-0.5-0.5-0.7
								c-0.2-0.3-0.4-0.5-0.6-0.7l-0.1,0.1l-0.1-0.1c-2-3.5-2.5-8.1-1.3-13.9c0.3-1.6,0.7-3.3,1.1-4.9c0.6-2.4,1.2-4.9,1.5-7.4h0.3
								c-0.3,2.5-0.9,5-1.5,7.4c-0.4,1.6-0.8,3.3-1.1,4.9c-1.1,5.7-0.7,10.1,1.2,13.5l0.1-0.1l0.1,0.1c0.2,0.2,0.4,0.5,0.7,0.8
								c0.2,0.2,0.3,0.5,0.5,0.7c0.5,0.7,0.9,1.3,1.5,1.9c1.1,1.1,2.5,1.6,3.8,1.4c1.8-0.2,3.2-1.7,4.3-3.1l0,0
								c0.2-0.3,0.4-0.5,0.7-0.8c1.1-1.4,2.3-3,3.1-4.9c0.9-2,1.2-4.2,1.5-6.4c0.7-4.4,1.4-8.8,2.1-13.2l1.6-9.9
								c0.3-2.1,0.7-4.3,1.3-6.4c0.2-0.8,0.5-1.7,0.8-2.5c0.8-2.3,1.6-4.6,1.4-7v-0.1c0-0.5-0.1-1,0.1-1.5c0.1-0.3,0.2-0.6,0.5-0.7
								c0.5-0.4,1.1-0.3,1.7-0.2c0.4,0.1,0.7,0.1,1.1,0c0.9-0.2,1.4-1.1,1.6-1.8c0.2-0.9-0.1-1.8-0.3-2.7
								c-1.6-6.9-3.3-13.7-4.9-20.6l-0.3-0.4v-0.1C132.1,146.3,132.3,138.1,132.9,128.8z"/>
						</g>
						<g>
							<path class="st1" d="M110.2,162.4l0.3-0.1c0.4,1.8,0.6,3.5,0.9,5.6l0.5,3.3c0.4,2.6,0.7,5.2,1.1,7.8c0.3,1.8,0.5,3.7,0.5,5.6
								c0,1.3-0.2,2.7-0.5,4.5c-0.2,0.9-0.4,1.8-0.6,2.6c-0.4,1.8-0.8,3.7-1,5.6c-0.1,1.2-0.1,2.4-0.1,3.5c0,1,0,2-0.1,3
								c0,0.3,0,0.6-0.1,0.9h-0.3c0-0.3,0.1-0.6,0.1-0.9c0.1-1,0.1-2,0.1-3c0-1.2,0-2.4,0.1-3.5c0.2-1.9,0.6-3.8,1-5.7
								c0.2-0.9,0.4-1.8,0.6-2.6c0.3-1.8,0.5-3.1,0.5-4.4c0-1.9-0.2-3.8-0.5-5.6c-0.4-2.6-0.7-5.2-1.1-7.8l-0.5-3.3
								C110.9,165.9,110.6,164.1,110.2,162.4z"/>
						</g>
						<g>
							<path class="st1" d="M82.3,154.7h0.3c0,0.3,0,0.6-0.1,1c-0.1,1.3-0.5,2.5-0.7,3.3c-0.4,1.4-0.8,2.7-1.2,4
								c-0.7,2.2-1.4,4.5-2,6.8c-0.9,3.8-1.5,7.8-2.1,11.6c-0.3,2.1-0.6,4.2-1,6.4c-0.4,2.5-1,5.2-1.7,8.1c-1.2,5-2.6,10-4,14.9
								c-0.8,2.7-1.6,5.6-2.4,8.3c-0.8,3.1-1.5,5.9-1.2,8.8c0.1,0.5,0.2,1,0.3,1.5c0.8,2.6,2.5,4.6,4.6,5.3c1.2,0.4,2.5,0.4,3.9,0
								c1.7-0.5,3.3-1.6,4.6-3.1c0.8-1,1.6-2.2,2.2-3.7c0.7-1.7,1.3-3.5,1.7-5.1c0.3-0.9,0.5-1.7,0.8-2.6c0.2-0.8,0.5-1.6,0.7-2.4
								c0.5-1.5,0.9-3.1,1.4-4.6s0.9-3.1,1.4-4.6l5-17.2c1.1-3.9,2.3-7.9,3.2-11.9c0.6-2.9,1-5.4,1.3-7.9v-0.3c0.2-4,1.1-8,2.1-12
								c0.4-1.9,1-3.2,1.8-4.2c0.6-0.7,1.2-1.1,2-1.3c1.4-0.4,3.1,0.1,4.3,1.2c0.9,0.9,1.6,2.1,2.3,3.9c0.3,1,0.6,2,0.9,3.2
								l-0.3,0.1c-0.3-1.2-0.5-2.2-0.9-3.2c-0.6-1.8-1.3-2.9-2.2-3.8c-1.2-1.1-2.7-1.6-4-1.2c-0.7,0.2-1.3,0.6-1.8,1.2
								c-0.7,0.9-1.3,2.2-1.7,4c-1,4-1.8,8-2.1,12v0.3c-0.2,2.5-0.6,5.1-1.3,8c-0.9,4-2,8-3.2,11.9L88,208.7
								c-0.5,1.5-0.9,3.1-1.4,4.6s-0.9,3.1-1.4,4.6c-0.2,0.8-0.5,1.6-0.7,2.4c-0.3,0.9-0.5,1.7-0.8,2.6c-0.5,1.6-1,3.4-1.7,5.1
								c-0.6,1.5-1.4,2.7-2.2,3.8c-1.2,1.5-2.9,2.7-4.7,3.2c-1.4,0.4-2.8,0.4-4.1,0c-2.2-0.7-4-2.8-4.8-5.5c-0.1-0.5-0.3-1-0.3-1.5
								c-0.4-2.9,0.3-5.8,1.2-8.9c0.8-2.8,1.6-5.6,2.4-8.4c1.4-4.9,2.8-9.9,4-14.9c0.7-2.9,1.3-5.6,1.7-8.1c0.4-2.1,0.7-4.3,1-6.3
								c0.6-3.8,1.1-7.8,2.1-11.6c0.6-2.3,1.3-4.6,2-6.8c0.4-1.3,0.8-2.7,1.2-4c0.2-0.8,0.6-2.1,0.7-3.3
								C82.3,155.3,82.3,155,82.3,154.7z"/>
						</g>
						<g>
							<path class="st1" d="M82.3,153.8h0.3c0,0.3,0,0.6,0,0.9h-0.3C82.3,154.4,82.3,154.1,82.3,153.8z"/>
						</g>
						<g>
							<path class="st1" d="M78.1,150.3c0.6-0.6,1.6-0.9,2.4-0.5c0.4,0.2,0.8,0.5,1.1,1.1c0.5,0.8,0.8,1.8,0.9,2.9h-0.3
								c-0.1-1.1-0.4-2-0.9-2.8c-0.3-0.5-0.6-0.8-1-0.9c-0.9-0.4-1.9,0.1-2.4,0.8c-0.6,0.7-0.9,1.7-1.1,2.6l-5.1,19.4l-0.3-0.1
								l5.1-19.4c0.2-0.9,0.5-1.9,1.2-2.7C77.9,150.6,78,150.4,78.1,150.3z"/>
						</g>
						<g>
							<path class="st1" d="M49.8,28.8l0.1-0.1L80.6,6.3h0.1l31.7,5.5l6.6,41.1l8.6,30l5.6,45.9v0.4l-3.4-4.4l-8.3-3.3l-8.5,7.7
								l-5.3-10.7l-14.4-5.2l-5,7.2l-4.2-6.6l-10.4-4.4L62.1,114l-0.1-0.1L45.5,97.5v-0.1c0,0,1.6-3.5,3.1-6.8
								c2.7-5.7,3.3-6.7,3.5-6.9C52.3,83,50.3,73,49,66.4l0,0l11-23.3L49.8,28.8z M80.6,6.6L50.1,28.8L60.3,43v0.1L49.2,66.4
								c1,5,3.4,16.5,3.2,17.4l0,0v0.1h-0.1c-0.5,0.5-4.1,8.2-6.5,13.5l16.3,16.1l11.5-4.4l10.5,4.5l0,0l4,6.2l4.9-7.1l14.7,5.4
								l5.2,10.5l8.4-7.6l8.5,3.4l2.9,3.8L127.3,83l-8.6-30L112,12.1L80.6,6.6z M52.3,84L52.3,84L52.3,84z"/>
						</g>
						<g>
							<path class="st1" d="M110.1,232h0.3c0,0.2-0.1,0.2-0.1,0.3l-0.1,0.1l-0.1-0.1l0.1-0.1l0,0l0,0L110.1,232
								C110.1,232.1,110.1,232.1,110.1,232z M110.2,232.2L110.2,232.2L110.2,232.2z"/>
						</g>
						<g>
							<path class="st1" d="M110.7,205.4h0.3l0,0v0.2c0,5.6-0.2,24.1-0.5,26.3h-0.3c0.3-2.2,0.5-20.7,0.5-26.3V205.4z"/>
						</g>
						<g>
							<path class="st1" d="M110.7,205.4l0.3-0.1l3.1,14.5l4.8-11.1l5.3,12.9l-10.1-1.2l-3.7,11.6l-0.3-0.1l3.7-11.6L110.7,205.4z
								 M123.8,221.4l-4.9-11.9l-4.7,10.7L123.8,221.4z"/>
						</g>
						<g>
							<polygon class="st1" points="110.1,231.9 110.3,232 110.4,231.9 110.3,232 110.4,232 110.4,232 110.3,232 110.2,232.1 
								110.1,232 110.1,232 110.1,232 							"/>
						</g>
						<g>
							<path class="st1" d="M127.4,153.2L127.4,153.2l0.1,0.1h0.1c0,0.1,0.7,1.1,1.3,2.2c2.3,3.7,3.5,5.7,3.3,6.1
								c0,0.1,0,0.1-0.1,0.1c-0.3,0.7,0.5,11.4,1.1,18.5v0.2l-8.9-2.7l-10.9,7l-2.4,20.6l8,3.7l5.6,0.3l3.6-1.9l-7,24.8h-0.1
								l-10.8,0.1h-0.2l0.1-0.4l0.3,0.1l0,0l10.5-0.1l6.8-24l-3.1,1.6l-5.7-0.3l-0.1-0.1l-8.1-3.8l0.1-0.8l2.4-20.2h0.1l11-7.1h0.1
								l8.6,2.6c-0.1-0.9-0.4-5-0.7-9c-0.6-8.8-0.4-9.4-0.3-9.6c0-0.5-2.1-4-3.3-5.9C127.2,153.4,127.3,153.4,127.4,153.2
								L127.4,153.2z M132,161.5L132,161.5L132,161.5z M132.1,161.7L132.1,161.7L132.1,161.7z"/>
						</g>
						<g>
							<path class="st1" d="M82.2,134.8l0.4,19.6l7.1-6.4l8.3,2.2l3.2,5c0.9-1.4,6.3-10.1,7.2-12.1c0-0.3,0-0.4,0.1-0.5h0.1h0.1
								c0.1,0,0.1,0,0.1,0.1s0,0.2-0.1,0.5c-0.1,2.4,1.3,14.9,1.8,19l7.9-10h0.1c0.9,0.1,8.8,1.2,9,1.2l-0.1,0.3
								c-0.2,0-5.8-0.8-8.9-1.2l-8.3,10.5v-0.4v-0.1c-0.4-3.6-1.7-15.2-1.8-18.6c-1.5,2.9-6.8,11.4-7.1,11.8l-0.1,0.2l-3.4-5.2
								l-8-2.1l0,0l-7.4,6.7V155v-0.9L82,137l-4,13.8l-0.3-0.1L82.2,134.8z"/>
						</g>
						<g>
							<path class="st1" d="M88.1,120.1h0.3c0,0.3,2.1,27.5,1.4,28.1l0,0h-0.2h0.1l0,0c-0.8,1.4-3.5,22.2-4,25.6l15.3-18.6l0.2,0.2
								l-15.5,18.9l10.6,5.4L83,185.1l10,6.4l-14.4,10.2c9.3,6.7,9.3,6.9,9.2,7c0,0.1-0.1,0.3-13.7,1l3.8,4.2l7.4,4L75,221
								c6.9,6.8,6.9,6.9,6.9,7c0,0,0,0.1-6.9,6.9l-0.1,0.1l-0.1-0.1l-8.8-5.5l4.6-8.3c-0.5-0.3-2.4-1.7-3.2-2
								c-0.2,0.1-0.3,0.1-0.4,0l-0.1-0.1v-0.1c0,0,0-0.1,0.1-0.1c0.1-0.1,0.2-0.1,0.4,0c0.6-0.2,2.1-0.9,4.3-2l1.9-7.3l0,0l0.1-0.2
								l0,0l1.5-4l3-3.7l0,0l0.1-0.1l4.3-16.5l-0.1-0.1h0.1l-2.3-4.6l0.1-0.1l5-6.1c0.2-1.5,3.2-24.7,4.1-26.2
								c0-0.1,0.1-0.1,0.1-0.1C90.1,146.6,88.3,122.4,88.1,120.1z M89.8,148L89.8,148L89.8,148z M95.8,179.6l-10.1-5.1l-4.9,6
								l2.2,4.4L95.8,179.6z M92.7,191.5l-9.7-6.3l-4.2,16.1L92.7,191.5z M87.6,208.6c-0.9-0.8-5.7-4.3-9.1-6.7l-3,3.7l-1.4,3.8
								C79.1,209.2,86.3,208.8,87.6,208.6z M77.8,214l-3.7-4.1l-1.8,6.9C74.7,215.6,77.1,214.3,77.8,214z M71.9,217.3
								c-1.9,0.9-3.1,1.5-3.9,1.8c0.9,0.4,2.4,1.5,2.9,1.8L71.9,217.3z M77.7,214.3c-0.9,0.4-3.3,1.7-5.5,2.8l-1,3.9
								c1.6,0,3.3,0,3.6-0.1h0.1C75.2,220.6,76.7,216.9,77.7,214.3z M84.8,217.9l-6.7-3.6c-0.9,2.2-2.2,5.4-2.8,6.5L84.8,217.9z
								 M74.9,221.2c-0.6,0.1-3,0.1-3.8,0.1v0.1l0,0l-4.4,8.1l8.4,5.3c1.8-1.8,6.1-6.1,6.7-6.7C81.2,227.4,77.5,223.7,74.9,221.2z"
								/>
						</g>
						<g>
							<polygon class="st1" points="88.4,120 108.5,142.3 113,128.3 118.6,152.1 124.4,177.5 124.4,177.6 118.8,209.7 118.6,209.6 
								118.7,209.1 124.1,177.5 118.3,152.1 113,129.4 108.7,142.8 88.2,120.2 							"/>
						</g>
						<g>
							<path class="st1" d="M82.3,154.7h0.3l-0.1,0.9l-1.8,24.9l0,0c-0.3,0.4-4.3,9.4-6.8,15.3l0.3,13.8l-6.7,9.5l-0.2-0.2l0,0
								l6.6-9.4l-0.3-13.7l0,0c0.6-1.5,6.2-14.4,6.8-15.4L82.3,154.7z"/>
						</g>
						<g>
							<path class="st1" d="M73.5,109.3h0.3l-0.1,19c-1.1,3.4-10.6,33.1-10.8,33.5c-0.3,0.4-3.4,4.9-3.8,5.5l3.1,8.2l0,0l-3.6,16.2
								l-3.8,3.4l2.9,7.1L68,186.3c0.7-3.1,1.5-6.2,2.3-9.3l0.3-1.3c0.3-1,0.5-2,0.8-3l0.3,0.1c-0.3,1-0.5,2-0.8,3l-0.3,1.3
								c-0.8,3-1.6,6.2-2.3,9.3l0,0l0,0l-10.5,16l5.3,3.1l-2.1,7.7l-9.6-3.8l2.6-7.2l3.4,0.1l-3-7.3l3.9-3.5l3.6-16.1l-3.1-8.3V167
								c0-0.1,3.6-5.1,3.9-5.5c0.3-0.5,7.2-22,10.8-33.4V109.3z M57.6,202.7l-3.4-0.1l-2.4,6.8l9,3.6l2-7.2L57.6,202.7z"/>
						</g>
						<g>
							<path class="st1" d="M62,113.5h0.2l26.2,6.4v0.2l-6.3,15.8l-8.5-7.5l-7.4,1.4l-11.3,35.8l8-4.1l0.1,0.1l8.9,11.3l-9.7,2.6
								L53,188.7l5.6,2.7l9.6-5.2l0.1,0.2l-9.8,5.2l-5.5-2.7l1.8,6l-0.3,0.1l-1.9-6.2l0,0v-0.1l0,0l0,0l1.9-22.6h-0.1l0.1-0.3
								l4.2-16.6l3.7-19.3L62,113.5z M88.1,120.2l-25.8-6.3l0.4,16.1L59,149.3l-3,12l10-31.7l7.7-1.5h0.1l8.3,7.3L88.1,120.2z
								 M62.8,161.9l-8,4.1l-1.9,22.3l9.1-13l9.4-2.6L62.8,161.9z"/>
						</g>
						<g>
							<path class="st1" d="M49.9,28.6l63.5-17.2l-32,16.4L116.7,38l-0.2,0.2L95.9,58.4l17.6,13.8l0.2-0.3l-0.1,0.5l14,10.6l0,0
								l-20.1,35.9l5.8-46L84,114l-9.9-47.1l-11.9,46.9h-0.1l-9.9,5.2l10.5,11l-4.7,1.2v21.6l-9.7,6.4l6.4,6.7v0.1l-4.5,13.5
								l2.8,9.9l-7-7.7l0.7-1.8l-4.6-27.7l0.1-0.1l0,0l4.2-1.2c0.1-0.5,0.5-3.4,3.8-22.3l-5.3-1.9l-0.1-0.1l7.1-7.6l0,0l0,0l0.1-0.1
								l0,0l9.9-5.2l12-47.3L60,43l20.9-15.2l0,0l0.2-0.1L111,12.4L50,28.9L49.9,28.6z M81,28.1l-20.7,15l13.9,23l21.3-7.8L81,28.1z
								 M116.2,38.1l-34.9-10l14.4,30.1L116.2,38.1z M95.6,58.6l-21.3,7.8l9.9,47l29.1-41L95.6,58.6L95.6,58.6L95.6,58.6z
								 M50.3,128.2c0.7-4.2,1.4-7.6,1.6-8.8l-6.6,7L50.3,128.2z M62.3,129.9l-10.1-10.6c-0.2,1-0.8,4.6-1.6,9l7.4,2.6L62.3,129.9z
								 M127.3,83l-13.7-10.4l-5.6,45L127.3,83z M57.7,131.2l-7.3-2.6c-2.6,14.5-3.5,19.9-3.7,21.7L57.7,131.2z M57.8,152.6v-21
								L46.6,151c0.1,0.7,1.4,6.8,1.7,8L57.8,152.6z M46.4,151.1l-4,1.2l4.6,27.4c1.3,0,2.7-0.1,2.9-0.3l0,0
								c-0.1-0.4-1.2-3.2-1.9-5.1l0,0v-15.1l-0.1-0.1H48C47.9,158.3,46.6,152.3,46.4,151.1z M54.5,166l-6.1-6.4v14.7
								c0.2,0.5,1.3,3.5,1.7,4.7L54.5,166z M50,179.7c-0.6,0.3-2.3,0.3-3,0.3l-0.7,1.6l6.1,6.7L50,179.7z"/>
						</g>
						<g>
							<polygon class="st1" points="49.1,66.2 74.6,66.1 52.4,83.9 52.2,83.7 52.2,83.7 73.8,66.4 49.1,66.5 							"/>
						</g>
					</g>
				</g>
			</g>
		</g>
	</g>
	<g>
		<g>
			<g>
				<g id="XMLID_00000102511634329101896730000009835531699614640798_" class="st0">
					<g>
						<g>
							<path class="st1" d="M111,291.6c0-0.8-0.2-24.1-0.5-26.6l0,0l-0.1-0.2c-0.2,0.3-0.4,0.5-0.7,0.8l-0.1-0.1
								c-2.4,4.1-2.2,9.2-1.3,13.8C109.2,283.5,110.5,287.5,111,291.6z"/>
						</g>
						<g>
							<path class="st1" d="M66.7,267.6L66.7,267.6c-0.2,0.5-0.3,1-0.3,1.5c-0.4,3,0.4,6,1.2,8.9c0-0.1,0.1,0,0.3,0
								c0.9-0.3,3.4-2.1,3.4-2.1L66.7,267.6z"/>
						</g>
						<g>
							<path class="st1" d="M67.6,278L67.6,278c2.1,7.7,4.5,15.4,6.4,23.2l0.3-13.8L67.6,278z"/>
						</g>
						<g>
							<path class="st1" d="M108.8,354.1c-0.1-2.7,1.8-18.8,1.8-19.4c-0.2,1.1-0.5,2.2-0.9,3.2c-0.5,1.4-1.2,2.8-2.2,3.9
								c-1.1,1-2.7,1.6-4.1,1.2c-0.8-0.2-1.4-0.7-1.9-1.3C101.4,341.7,107.9,352,108.8,354.1z"/>
						</g>
						<g>
							<path class="st1" d="M54.3,294.6l-2.5-7l0,0c-1,3.6-0.7,7.5-0.4,11.3c0.2,3.2,0.3,6.4,1.6,9.3l1.9-6.3l3-7.4L54.3,294.6z"/>
						</g>
						<g>
							<path class="st1" d="M133.2,368.3l-5.6,45.8l0.9-1c1.1-2.3,2.1-4.5,3.2-6.8c0.8-1.7,1.6-3.3,2.1-5.1c1.4-4.5,1-9.4,0.7-14.1
								c-0.2-2.6-0.4-5.1-0.6-7.7C133.7,375.7,133.5,372,133.2,368.3z"/>
						</g>
						<g>
							<path class="st1" d="M62.3,321.6L53,308.2l1.9,22.9l8.2,4.2c-0.3-0.4-3.9-5.5-3.9-5.5L62.3,321.6z"/>
						</g>
						<g>
							<path class="st1" d="M46.4,315.5l6.5-7.2c-1-0.6-2.3,0.2-3.1,1.1c-1.7,1.8-2.9,3.8-3.8,6L46.4,315.5z"/>
						</g>
						<g>
							<path class="st1" d="M82.6,341.4l-1.8-24.8c-0.4-0.4-6.9-15.4-6.9-15.4c0.6,2.7,1.2,5.4,1.7,8.1c1,6,1.6,12.1,3.1,18
								c0.9,3.7,2.1,7.2,3.2,10.8C82.2,339.2,82.5,340.3,82.6,341.4z"/>
						</g>
						<g>
							<path class="st1" d="M47.1,317.2l-0.7-1.7l-0.4-0.2c-1.8,4.3-2.4,9.3-2.8,14.1c-0.5,4.7-0.9,9.5-0.8,14.2
								c0,0.4,0,0.9,0.1,1.3L47.1,317.2z"/>
						</g>
						<g>
							<path class="st1" d="M63,335.4l-8.2-4.2l11.4,36.2l7.6,1.4C73.8,368.8,63.3,335.8,63,335.4z"/>
						</g>
						<g>
							<polygon class="st1" points="59.1,347.8 62.8,367.1 62.4,383.4 73.9,380.5 73.8,368.8 66.3,367.4 54.9,331.1 58.2,344.4 
															"/>
						</g>
						<g>
							<path class="st1" d="M46.7,346.1l-4.3-1.3c0.3,4.9,1.1,9.7,1.7,14.6c0.5,3.7,0.8,7.4,1,11.1l5.4-1.9
								C49,359.4,46.7,346.5,46.7,346.1z"/>
						</g>
						<g>
							<path class="st1" d="M62.4,383.4l-10.1-5.3l-7.1-7.5c0.6,9.7,0.6,19.4,0.7,29.1L62.4,383.4z"/>
						</g>
						<g>
							<path class="st1" d="M45.9,399.6c0,1,0,2,0,3c0.1,7.3,0.3,14.7,1.8,21.8c0.4,2.1,1,4.2,1.6,6.3c0,0,3.5-17,3.2-17.4l0,0
								C52.1,413.3,45.9,399.6,45.9,399.6z"/>
						</g>
						<g>
							<polygon class="st1" points="74.4,430.8 49.3,430.7 60.4,454 							"/>
						</g>
						<g>
							<path class="st1" d="M49.3,430.7c1.5,5.2,3.2,10.3,4.1,15.6c1.1,6.4,1.7,14-1.5,19.6l8.5-11.8L49.3,430.7z"/>
						</g>
					</g>
				</g>
				<g id="XMLID_00000026160997328820446560000010475624931922487733_">
					<g>
						<g>
							<path class="st1" d="M58.3,481.1c2.1,1.8,4.7,3.6,7.9,5.3c4.5,2.4,9.3,4.2,14.4,5.3c6.2,1.4,12.5,1.7,18.7,0.9
								c6.5-0.8,10.9-2.9,13.1-6.5l0,0V486c-0.5-2.6,0.3-4.9,1.2-7.1c0.3-0.7,0.6-1.4,0.9-2.1c0.9-2,1.8-4.1,2.2-6.4
								c0.3-1.7,0.2-3.5,0.1-5.3c0-0.4,0-0.9-0.1-1.3c-0.1-1.5,0-3.1,0-4.7c0.2-4.3,1-8.9,2.3-14.1l-0.3-0.1
								c-1.3,5.2-2.1,9.8-2.3,14.2c-0.1,1.6-0.1,3.2-0.1,4.8c0,0.4,0,0.9,0.1,1.3c0.1,1.7,0.2,3.5-0.1,5.2c-0.4,2.2-1.3,4.3-2.2,6.3
								c-0.3,0.7-0.6,1.4-0.9,2.1c-0.8,2-1.6,4.5-1.2,7.2c-2.2,3.4-6.5,5.6-12.8,6.3c-6.2,0.7-12.4,0.4-18.6-0.9
								c-5-1.1-9.8-2.9-14.3-5.2c-10.4-5.5-14.4-12.2-16-16.8l0,0l-0.1-0.1c0.6-0.7,1.2-1.5,1.7-2.4c3.3-5.9,2.4-14.1,1.5-19.7
								c-0.7-4-1.9-8-3-11.8c-0.4-1.2-0.7-2.5-1.1-3.8c-0.7-2.4-1.2-4.4-1.6-6.2c-1.5-7.2-1.7-14.4-1.8-21.8c0-1,0-2,0-3
								c0-1.4,0-2.7,0-4.1c-0.1-8.2-0.2-16.7-0.7-25c-0.3-4-0.6-7.6-1-11.1c-0.2-1.4-0.4-2.8-0.6-4.2c-0.5-3.4-1-6.9-1.1-10.4
								c0-0.5,0-0.9-0.1-1.3c-0.1-4.7,0.3-9.5,0.8-14.1v-0.1c0.5-5,1.1-9.8,2.8-14c1-2.4,2.2-4.3,3.8-6c0.4-0.4,1.8-1.7,3-1.1
								l0.4,0.2L53,309c-1.1-2.5-1.3-5.4-1.5-8.1c0-0.4-0.1-0.8-0.1-1.1c-0.3-3.5-0.6-7.6,0.4-11.2c0.1-0.4,0.2-0.7,0.3-1.1
								c0.5-1.5,1.5-3.3,3.3-4c1.4-0.5,3.2-0.2,4.9,0.9c0.2,0.1,0.4,0.3,0.6,0.4c2.8,2.2,4.1,5.6,4.7,8.1c0.6,2.4,0.8,4.9,1,7.3
								c0.1,1,0.2,2,0.3,3c0.3,2.5,0.7,5.2,1.4,8.2l0.3-0.1c-0.7-3-1.1-5.7-1.4-8.2c-0.1-1-0.2-2-0.3-3c-0.2-2.4-0.4-4.9-1-7.3
								c-0.6-2.5-1.9-6-4.8-8.3c-0.2-0.2-0.4-0.3-0.6-0.4c-1.7-1.2-3.6-1.5-5.1-1c-1.9,0.7-2.9,2.6-3.4,4.2
								c-0.1,0.4-0.2,0.7-0.3,1.1c-1,3.7-0.7,7.8-0.4,11.3c0,0.4,0.1,0.8,0.1,1.1c0.2,2.6,0.4,5.4,1.4,7.9c-1.3-0.4-2.6,0.8-3,1.3
								c-1.6,1.7-2.8,3.6-3.8,6c-1.8,4.3-2.3,9.1-2.8,14.1v0.1c-0.5,4.6-0.9,9.4-0.8,14.2c0,0.4,0,0.9,0.1,1.3
								c0.2,3.5,0.7,7,1.1,10.4c0.2,1.4,0.4,2.8,0.6,4.2c0.4,3.5,0.8,7.1,1,11.1c0.5,8.3,0.6,16.8,0.7,25c0,1.4,0,2.7,0,4.1
								c0,1,0,2,0,3c0.1,7.4,0.3,14.7,1.8,21.8c0.4,1.8,0.9,3.8,1.6,6.3c0.4,1.3,0.7,2.6,1.1,3.8c1.1,3.8,2.3,7.8,3,11.7
								c1,5.6,1.9,13.6-1.4,19.5c-0.5,0.9-1.1,1.7-1.7,2.4l-0.1,0.1l0.3,0.2C51.1,472.7,53.5,477,58.3,481.1z"/>
						</g>
						<g>
							<path class="st1" d="M118.7,445h0.3c0.4-1.5,0.8-3.1,1.3-4.6c0.3-1,0.6-2.1,1-3.2c0.7-2.4,1.5-4.7,2.3-7
								c1.4-4.1,2.8-8.4,3.9-12.6c0.2-0.9,0.3-1.7,0.1-2.5l0.9-1l0,0c0.7-1.4,1.3-2.8,2-4.2l1.2-2.6c0.7-1.5,1.5-3.3,2.1-5.1
								c1.4-4.6,1-9.7,0.7-14.2l-0.6-7.7c-0.3-4.1-0.5-7.8-0.7-11.1h-0.3c0.2,3.4,0.4,7,0.7,11.1l0.6,7.7c0.3,4.4,0.7,9.5-0.7,14.1
								c-0.5,1.8-1.3,3.4-2.1,5.1l-1.2,2.6c-0.6,1.4-1.3,2.8-1.9,4.2l-1,1.1v0.1c0.2,0.7,0.1,1.5-0.1,2.4c-1.2,4.2-2.6,8.5-3.9,12.6
								c-0.8,2.3-1.6,4.7-2.3,7c-0.4,1.1-0.7,2.2-1,3.2C119.5,441.9,119.1,443.5,118.7,445z"/>
						</g>
						<g>
							<path class="st1" d="M132.9,369.2h0.3c-0.5-9.3-0.7-17.5-0.6-25l0.3-0.4l0,0c1.7-6.9,3.3-13.7,5-20.6
								c0.2-0.8,0.4-1.8,0.3-2.8c-0.2-0.9-0.8-1.9-1.8-2.1c-0.4-0.1-0.8,0-1.2,0c-0.6,0.1-1.1,0.2-1.5-0.2c-0.2-0.1-0.3-0.3-0.4-0.6
								c-0.1-0.4-0.1-0.9-0.1-1.4V316c0.2-2.5-0.7-4.8-1.5-7.2c-0.3-0.8-0.6-1.6-0.8-2.5c-0.6-2.1-1-4.3-1.3-6.4L128,290
								c-0.7-4.4-1.4-8.8-2.1-13.2c-0.3-2.1-0.7-4.4-1.6-6.4c-0.8-1.9-2-3.6-3.1-5c-0.2-0.3-0.4-0.5-0.7-0.8l0,0
								c-1.2-1.4-2.6-3-4.5-3.2c-1.3-0.2-2.8,0.4-4,1.5c-0.6,0.6-1.1,1.2-1.6,1.9c-0.2,0.2-0.3,0.5-0.5,0.7
								c-0.2,0.3-0.4,0.5-0.6,0.7l-0.1-0.1l-0.1,0.1c-2,3.5-2.5,8.1-1.3,13.9c0.3,1.6,0.7,3.3,1.1,4.9c0.6,2.4,1.2,4.9,1.5,7.4h0.3
								c-0.3-2.5-0.9-5-1.5-7.4c-0.4-1.6-0.8-3.3-1.1-4.9c-1.1-5.7-0.7-10.1,1.2-13.5l0.1,0.1l0.1-0.1c0.2-0.2,0.4-0.5,0.7-0.8
								c0.2-0.2,0.3-0.5,0.5-0.7c0.5-0.7,0.9-1.3,1.5-1.9c1.1-1.1,2.5-1.6,3.8-1.4c1.8,0.2,3.2,1.7,4.3,3.1l0,0
								c0.2,0.3,0.4,0.5,0.7,0.8c1.1,1.4,2.3,3,3.1,4.9c0.9,2,1.2,4.2,1.5,6.4c0.7,4.4,1.4,8.8,2.1,13.2l1.6,9.9
								c0.3,2.1,0.7,4.3,1.3,6.4c0.2,0.8,0.5,1.7,0.8,2.5c0.8,2.3,1.6,4.6,1.4,7v0.1c0,0.5-0.1,1,0.1,1.5c0.1,0.3,0.2,0.6,0.5,0.7
								c0.5,0.4,1.1,0.3,1.7,0.2c0.4-0.1,0.7-0.1,1.1,0c0.9,0.2,1.4,1.1,1.6,1.8c0.2,0.9-0.1,1.8-0.3,2.7
								c-1.6,6.9-3.3,13.7-4.9,20.6l-0.3,0.4v0.1C132.1,351.7,132.3,359.9,132.9,369.2z"/>
						</g>
						<g>
							<path class="st1" d="M110.2,335.6l0.3,0.1c0.4-1.8,0.6-3.5,0.9-5.6l0.5-3.3c0.4-2.6,0.7-5.2,1.1-7.8c0.3-1.8,0.5-3.7,0.5-5.6
								c0-1.3-0.2-2.7-0.5-4.5c-0.2-0.9-0.4-1.8-0.6-2.6c-0.4-1.8-0.8-3.7-1-5.6c-0.1-1.2-0.1-2.4-0.1-3.5c0-1,0-2-0.1-3
								c0-0.3,0-0.6-0.1-0.9h-0.3c0,0.3,0.1,0.6,0.1,0.9c0.1,1,0.1,2,0.1,3c0,1.2,0,2.4,0.1,3.5c0.2,1.9,0.6,3.8,1,5.7
								c0.2,0.9,0.4,1.8,0.6,2.6c0.3,1.8,0.5,3.1,0.5,4.4c0,1.9-0.2,3.8-0.5,5.6c-0.4,2.6-0.7,5.2-1.1,7.8l-0.5,3.3
								C110.9,332.1,110.6,333.9,110.2,335.6z"/>
						</g>
						<g>
							<path class="st1" d="M82.3,343.3h0.3c0-0.3,0-0.6-0.1-1c-0.1-1.3-0.5-2.5-0.7-3.3c-0.4-1.4-0.8-2.7-1.2-4
								c-0.7-2.2-1.4-4.5-2-6.8c-0.9-3.8-1.5-7.8-2.1-11.6c-0.3-2.1-0.6-4.2-1-6.4c-0.4-2.5-1-5.2-1.7-8.1c-1.2-5-2.6-10-4-14.9
								c-0.8-2.7-1.6-5.6-2.4-8.3c-0.8-3.1-1.5-5.9-1.2-8.8c0.1-0.5,0.2-1,0.3-1.5c0.8-2.6,2.5-4.6,4.6-5.3c1.2-0.4,2.5-0.4,3.9,0
								c1.7,0.5,3.3,1.6,4.6,3.1c0.8,1,1.6,2.2,2.2,3.7c0.7,1.7,1.3,3.5,1.7,5.1c0.3,0.9,0.5,1.7,0.8,2.6c0.2,0.8,0.5,1.6,0.7,2.4
								c0.5,1.5,0.9,3.1,1.4,4.6s0.9,3.1,1.4,4.6l5,17.2c1.1,3.9,2.3,7.9,3.2,11.9c0.6,2.9,1,5.4,1.3,7.9v0.3c0.2,4,1.1,8,2.1,12
								c0.4,1.9,1,3.2,1.8,4.2c0.6,0.7,1.2,1.1,2,1.3c1.4,0.4,3.1-0.1,4.3-1.2c0.9-0.9,1.6-2.1,2.3-3.9c0.3-1,0.6-2,0.9-3.2
								l-0.3-0.1c-0.3,1.2-0.5,2.2-0.9,3.2c-0.6,1.8-1.3,2.9-2.2,3.8c-1.2,1.1-2.7,1.6-4,1.2c-0.7-0.2-1.3-0.6-1.8-1.2
								c-0.7-0.9-1.3-2.2-1.7-4c-1-4-1.8-8-2.1-12v-0.3c-0.2-2.5-0.6-5.1-1.3-8c-0.9-4-2-8-3.2-11.9L88,289.3
								c-0.5-1.5-0.9-3.1-1.4-4.6s-0.9-3.1-1.4-4.6c-0.2-0.8-0.5-1.6-0.7-2.4c-0.3-0.9-0.5-1.7-0.8-2.6c-0.5-1.6-1-3.4-1.7-5.1
								c-0.6-1.5-1.4-2.7-2.2-3.8c-1.2-1.5-2.9-2.7-4.7-3.2c-1.4-0.4-2.8-0.4-4.1,0c-2.2,0.7-4,2.8-4.8,5.5c-0.1,0.5-0.3,1-0.3,1.5
								c-0.4,2.9,0.3,5.8,1.2,8.9c0.8,2.8,1.6,5.6,2.4,8.4c1.4,4.9,2.8,9.9,4,14.9c0.7,2.9,1.3,5.6,1.7,8.1c0.4,2.1,0.7,4.3,1,6.3
								c0.6,3.8,1.1,7.8,2.1,11.6c0.6,2.3,1.3,4.6,2,6.8c0.4,1.3,0.8,2.7,1.2,4c0.2,0.8,0.6,2.1,0.7,3.3
								C82.3,342.7,82.3,343,82.3,343.3z"/>
						</g>
						<g>
							<path class="st1" d="M82.3,344.2h0.3c0-0.3,0-0.6,0-0.9h-0.3C82.3,343.6,82.3,343.9,82.3,344.2z"/>
						</g>
						<g>
							<path class="st1" d="M78.1,347.7c0.6,0.6,1.6,0.9,2.4,0.5c0.4-0.2,0.8-0.5,1.1-1.1c0.5-0.8,0.8-1.8,0.9-2.9h-0.3
								c-0.1,1.1-0.4,2-0.9,2.8c-0.3,0.5-0.6,0.8-1,0.9c-0.9,0.4-1.9-0.1-2.4-0.8c-0.6-0.7-0.9-1.7-1.1-2.6l-5.1-19.4l-0.3,0.1
								l5.1,19.4c0.2,0.9,0.5,1.9,1.2,2.7C77.9,347.4,78,347.6,78.1,347.7z"/>
						</g>
						<g>
							<path class="st1" d="M60,454.9l-11.1-23.3l0,0c1.4-6.6,3.4-16.6,3.2-17.3c-0.2-0.2-0.8-1.1-3.5-6.9c-1.6-3.4-3.1-6.8-3.1-6.8
								v-0.1L62,384.2l0.1-0.1l11.6,4.5l10.4-4.4l4.2-6.6l5,7.2l14.4-5.2l5.3-10.7l8.5,7.7l8.3-3.3l3.4-4.4v0.4l-5.6,45.9l-8.6,30
								l-6.7,41.1l-31.7,5.5h-0.1l-30.7-22.4l-0.1-0.1L60,454.9z M112.1,485.9l6.7-40.9l8.6-30l5.5-45.3l-2.9,3.8l-8.5,3.4l-8.4-7.6
								l-5.2,10.5l-14.7,5.4l-4.9-7.1l-4,6.2l0,0l-10.5,4.5l-11.5-4.4l-16.4,16.2c2.4,5.2,6,13,6.5,13.5h0.1v0.1l0,0
								c0.2,1-2.1,12.4-3.2,17.4l11.1,23.3v0.1l-10.2,14.2l30.5,22.2L112.1,485.9z M52.3,414L52.3,414L52.3,414z"/>
						</g>
						<g>
							<path class="st1" d="M110.1,265.9L110.1,265.9l0.1-0.1l0,0l-0.1-0.1l0.1-0.1l0.1,0.1c0,0,0.1,0.1,0.1,0.3L110.1,265.9
								C110.1,265.9,110.1,265.9,110.1,265.9z M110.3,265.9L110.3,265.9L110.3,265.9z"/>
						</g>
						<g>
							<path class="st1" d="M110.7,292.6h0.3l0,0v-0.2c0-5.6-0.2-24.1-0.5-26.3h-0.3c0.3,2.2,0.5,20.7,0.5,26.3V292.6z"/>
						</g>
						<g>
							<path class="st1" d="M113.9,277.7l-3.7-11.6l0.3-0.1l3.7,11.5l10.1-1.2l-5.3,12.9l-4.8-11.1l-3.1,14.5l-0.3-0.1L113.9,277.7z
								 M114.2,277.8l4.7,10.7l4.9-11.9L114.2,277.8z"/>
						</g>
						<g>
							<polygon class="st1" points="110.1,266.1 110.3,266 110.4,266.1 110.3,266 110.4,266 110.4,266 110.3,266 110.2,265.9 
								110.1,266 110.1,266 110.1,266 							"/>
						</g>
						<g>
							<path class="st1" d="M127.3,344.8c-0.1-0.1-0.1-0.1,1.3-2.4c1.2-1.9,3.3-5.4,3.3-5.9c-0.2-0.1-0.4-0.8,0.3-9.6
								c0.3-4,0.6-8.1,0.7-9l-8.6,2.6h-0.1l-11-7.1h-0.1l-2.4-20.2l-0.1-0.8l8.1-3.8l0.1-0.1l5.7-0.3l3.1,1.6l-6.8-24l-10.4,0.2l0,0
								l-0.3,0.1l-0.1-0.4h0.2l10.8,0.1h0.1l7,24.8l-3.6-1.9l-5.6,0.3l-8,3.7l2.5,20.7l10.9,7l8.9-2.7v0.2
								c-0.6,7.1-1.4,17.8-1.1,18.5l0.1,0.1c0.1,0.4-1,2.4-3.3,6.1c-0.7,1-1.3,2-1.3,2.2h-0.1v0.1L127.3,344.8L127.3,344.8z
								 M132,336.5L132,336.5L132,336.5z M132.1,336.3L132.1,336.3L132.1,336.3z"/>
						</g>
						<g>
							<path class="st1" d="M82.2,363.2l0.4-19.6l7.1,6.4l8.3-2.2l3.2-5c0.9,1.4,6.3,10.1,7.2,12.1c0,0.3,0,0.4,0.1,0.5h0.1h0.1
								c0.1,0,0.1,0,0.1-0.1s0-0.2-0.1-0.5c-0.1-2.4,1.3-14.9,1.8-19l7.9,10h0.1c0.9-0.1,8.8-1.2,9-1.2l-0.1-0.3
								c-0.2,0-5.8,0.8-8.9,1.2l-8.3-10.5v0.4v0.1c-0.4,3.6-1.7,15.2-1.8,18.6c-1.5-2.9-6.8-11.4-7.1-11.8l-0.1-0.2l-3.4,5.2l-8,2.1
								l0,0l-7.4-6.7v0.3v0.9L82,361l-4-13.8l-0.3,0.1L82.2,363.2z"/>
						</g>
						<g>
							<path class="st1" d="M89.7,350c-0.1,0-0.1-0.1-0.1-0.1c-0.8-1.5-3.9-24.7-4.1-26.2l-5-6.1l-0.1-0.1l2.3-4.6h-0.1l0.1-0.1
								l-4.3-16.5l-0.1-0.1l0,0l-3-3.7l-1.5-4l0,0l-0.1-0.2l0,0l-1.9-7.3c-2.3-1.1-3.7-1.8-4.3-2c-0.1,0-0.3,0.1-0.4,0
								c-0.1,0-0.1-0.1-0.1-0.1v-0.1l0.1-0.1c0.1-0.1,0.2-0.1,0.4,0c0.8-0.3,2.8-1.6,3.2-2l-4.6-8.3l8.8-5.5l0.1-0.1l0.1,0.1
								c6.8,6.8,6.8,6.9,6.9,6.9c0.1,0.1,0.1,0.2-6.9,7l10.3,3.1l-7.4,4l-3.8,4.2c13.7,0.7,13.7,0.9,13.7,1s0.1,0.3-9.2,7l14.4,10.2
								l-10,6.4l13.3,5.4l-10.6,5.4l15.5,18.9l-0.2,0.2L85.8,324c0.5,3.4,3.2,24.3,4,25.6l0,0c0,0,0,0-0.1,0h0.2l0,0
								c0.7,0.6-1.4,27.8-1.4,28.1h-0.3C88.3,375.6,90.1,351.4,89.7,350z M89.8,350L89.8,350L89.8,350z M82.9,313.1l-2.2,4.4l4.9,6
								l10.1-5.1L82.9,313.1z M78.8,296.6l4.2,16.1l9.7-6.3L78.8,296.6z M74.2,288.5l1.4,3.8l3,3.7c3.3-2.4,8.2-5.9,9.1-6.7
								C86.3,289.2,79.1,288.8,74.2,288.5z M72.3,281.2l1.8,6.9l3.7-4.1C77.1,283.7,74.7,282.4,72.3,281.2z M70.9,277.1
								c-0.5,0.4-2,1.4-2.9,1.8c0.7,0.3,2,0.9,3.9,1.8L70.9,277.1z M74.9,277.1L74.9,277.1c-0.4-0.1-2.1-0.1-3.7-0.1l1,3.9
								c2.3,1.1,4.7,2.3,5.5,2.8C76.7,281.1,75.2,277.4,74.9,277.1z M75.3,277.2c0.6,1.1,1.9,4.4,2.8,6.5l6.7-3.6L75.3,277.2z
								 M81.8,270c-0.6-0.6-4.9-4.9-6.7-6.7l-8.4,5.3l4.4,8.1l0,0v0.1c0.7,0,3.2,0,3.8,0.1C77.5,274.3,81.2,270.6,81.8,270z"/>
						</g>
						<g>
							<polygon class="st1" points="88.4,378 108.5,355.7 113,369.7 118.6,345.9 124.4,320.5 124.4,320.4 118.8,288.3 118.6,288.4 
								118.7,288.9 124.1,320.5 118.3,345.9 113,368.6 108.7,355.2 88.2,377.8 							"/>
						</g>
						<g>
							<path class="st1" d="M82.3,343.3h0.3l-0.1-0.9l-1.8-24.9l0,0c-0.3-0.4-4.3-9.4-6.8-15.3l0.3-13.8l-6.7-9.5l-0.2,0.2l0,0
								l6.6,9.4l-0.3,13.7l0,0c0.6,1.5,6.2,14.4,6.8,15.4L82.3,343.3z"/>
						</g>
						<g>
							<path class="st1" d="M73.5,369.8c-3.6-11.3-10.5-32.9-10.8-33.4c-0.3-0.4-3.8-5.5-3.9-5.5v-0.1l3.1-8.3l-3.6-16.1l-3.9-3.5
								l3-7.3l-3.4,0.1l-2.6-7.2l9.6-3.8l2.1,7.7l-5.3,3.1l10.5,16l0,0l0,0c0.7,3.1,1.5,6.2,2.3,9.3l0.3,1.3c0.3,1,0.5,2,0.8,3
								l-0.3,0.1c-0.3-1-0.5-2-0.8-3l-0.3-1.3c-0.8-3-1.6-6.2-2.3-9.3l-10.4-15.9l-2.9,7.1l3.8,3.4l3.6,16.2l0,0l-3.1,8.2
								c0.4,0.6,3.6,5.1,3.8,5.5c0.3,0.4,9.7,30.1,10.8,33.5l0.1,19h-0.3L73.5,369.8z M62.7,292.3l-2-7.2l-9,3.6l2.4,6.8l3.4-0.1
								L62.7,292.3z"/>
						</g>
						<g>
							<path class="st1" d="M62.4,368.1l-3.7-19.3l-4.2-16.6l-0.1-0.3h0.1l-1.9-22.6l0,0l0,0v-0.1l0,0l1.9-6.2l0.3,0.1l-1.8,6
								l5.5-2.7l9.8,5.2l-0.1,0.2l-9.6-5.2l-5.6,2.7l9.2,13.2l9.7,2.6L63,336.4l-0.1,0.1l-8-4.1l11.3,35.8l7.4,1.4l8.5-7.5l6.3,15.8
								v0.2l-26.2,6.4H62L62.4,368.1z M82,362.5l-8.3,7.3h-0.1l-7.7-1.5l-10-31.7l3,12l3.7,19.3L62.2,384l25.8-6.3L82,362.5z
								 M71.4,325.2l-9.4-2.6l-9.1-13l1.9,22.3l8,4.1L71.4,325.2z"/>
						</g>
						<g>
							<path class="st1" d="M50,469.1l60.9,16.5L81,470.3l-0.2-0.1l0,0L60,455l14-23.3l-12-47.3l-9.9-5.2l0,0l-0.1-0.1l0,0l0,0
								l-7.1-7.6l0.1-0.1l5.3-1.9c-3.3-18.9-3.8-21.8-3.8-22.3l-4.3-1.2l0,0l-0.1-0.1l4.6-27.7l-0.7-1.8l7-7.7l-2.8,9.9l4.5,13.5
								v0.1l-6.4,6.7l9.7,6.4v21.6l4.7,1.2l-10.5,11l9.9,5.2h0.1l11.9,46.9L84,384l29.2,41.1l-5.8-46l20.2,35.9l0.1,0.1l-14,10.6
								l0.1,0.5l-0.2-0.3L96,439.7l20.6,20.2l0.2,0.2l-35.2,10.2l32,16.4l-63.5-17.2L50,469.1z M95.5,439.7l-21.3-7.8l-13.9,23
								l20.7,15L95.5,439.7z M95.7,439.8l-14.4,30.1l34.8-10.1L95.7,439.8z M95.6,439.3L95.6,439.3l17.7-13.7l-29.1-41l-9.9,47
								L95.6,439.3L95.6,439.3z M45.2,371.5l6.6,7c-0.2-1.2-0.8-4.6-1.6-8.8L45.2,371.5z M57.9,367.1l-7.4,2.6
								c0.8,4.4,1.4,8.1,1.6,9l10.1-10.6L57.9,367.1z M108,380.4l5.6,44.9l13.7-10.3L108,380.4z M46.7,347.7
								c0.3,1.7,1.2,7.2,3.7,21.7l7.3-2.6L46.7,347.7z M48.3,339.1c-0.3,1.2-1.6,7.3-1.7,8l11.2,19.4v-21L48.3,339.1z M48.1,338.9
								L48.1,338.9v-0.1v-15.1l0,0c0.7-1.8,1.8-4.7,1.9-5.1l0,0c-0.2-0.2-1.7-0.3-2.9-0.3l-4.6,27.4l4,1.2
								C46.6,345.7,47.9,339.7,48.1,338.9z M50.1,319c-0.4,1.2-1.5,4.2-1.7,4.7v14.7l6.1-6.4L50.1,319z M52.4,309.7l-6.1,6.7L47,318
								c0.7,0,2.5,0,3,0.3L52.4,309.7z"/>
						</g>
						<g>
							<polygon class="st1" points="49.1,431.8 74.6,431.9 52.4,414.1 52.2,414.3 52.2,414.3 73.8,431.6 49.1,431.5 							"/>
						</g>
					</g>
				</g>
			</g>
		</g>
	</g>
</g>
<radialGradient id="SVGID_1_" cx="114.2" cy="250" r="18.5" gradientUnits="userSpaceOnUse">
	<stop  offset="0" style="stop-color:#3CFFFB"/>
	<stop  offset="3.883851e-02" style="stop-color:#34D4D1;stop-opacity:0.9612"/>
	<stop  offset="8.276623e-02" style="stop-color:#2CABA8;stop-opacity:0.9172"/>
	<stop  offset="0.1321" style="stop-color:#258583;stop-opacity:0.8679"/>
	<stop  offset="0.1858" style="stop-color:#1F6563;stop-opacity:0.8142"/>
	<stop  offset="0.2452" style="stop-color:#194948;stop-opacity:0.7548"/>
	<stop  offset="0.3123" style="stop-color:#153333;stop-opacity:0.6877"/>
	<stop  offset="0.3906" style="stop-color:#122222;stop-opacity:0.6094"/>
	<stop  offset="0.4873" style="stop-color:#101717;stop-opacity:0.5127"/>
	<stop  offset="0.6231" style="stop-color:#0E1010;stop-opacity:0.3769"/>
	<stop  offset="1" style="stop-color:#0E0E0E;stop-opacity:0"/>
</radialGradient>
<circle class="st2" cx="114.2" cy="250" r="18.5"/>
</svg>
