<?xml version="1.0" encoding="utf-8"?>
<!-- Generator: Adobe Illustrator 26.4.1, SVG Export Plug-In . SVG Version: 6.00 Build 0)  -->
<svg version="1.1" id="Capa_1" xmlns="http://www.w3.org/2000/svg" xmlns:xlink="http://www.w3.org/1999/xlink" x="0px" y="0px"
	 viewBox="0 0 12 12" style="enable-background:new 0 0 12 12;" xml:space="preserve">
<style type="text/css">
	.st0{fill:none;}
	.st1{fill:#0052FE;}
	.st2{fill:none;stroke:#0052FE;stroke-width:1.5;stroke-linecap:round;stroke-linejoin:round;stroke-miterlimit:2;}
</style>
<path class="st0" d="M-2-2.5"/>
<path class="st0" d="M-2-2.5"/>
<path class="st0" d="M-0.4,0.5"/>
<g>
	<g>
		<path class="st1" d="M7.9,10.4c-0.4,0-0.8-0.3-0.8-0.8V8.7c0-0.6-0.5-1.1-1.1-1.1H2.7c-0.6,0-1.1,0.5-1.1,1.1v0.9
			c0,0.4-0.3,0.8-0.8,0.8s-0.8-0.3-0.8-0.8V8.7c0-1.5,1.2-2.6,2.6-2.6H6c1.5,0,2.6,1.2,2.6,2.6v0.9C8.6,10.1,8.3,10.4,7.9,10.4z"/>
	</g>
	<g>
		<path class="st1" d="M4.3,5.7C2.9,5.7,1.7,4.5,1.7,3c0-1.5,1.2-2.6,2.6-2.6C5.8,0.4,7,1.6,7,3C7,4.5,5.8,5.7,4.3,5.7z M4.3,1.9
			C3.7,1.9,3.2,2.4,3.2,3s0.5,1.1,1.1,1.1S5.5,3.7,5.5,3S5,1.9,4.3,1.9z"/>
	</g>
	<g>
		<path class="st1" d="M9.3,6.6c-0.2,0-0.4-0.1-0.5-0.2L7.8,5.5c-0.3-0.3-0.3-0.8,0-1.1s0.8-0.3,1.1,0l0.4,0.4l1.4-1.4
			c0.3-0.3,0.8-0.3,1.1,0s0.3,0.8,0,1.1L9.8,6.4C9.7,6.5,9.5,6.6,9.3,6.6z"/>
	</g>
</g>
<g>
	<path class="st2" d="M-12.1,7V6.1c0-1-0.8-1.9-1.9-1.9h-3.3c-1,0-1.9,0.8-1.9,1.9V7"/>
	<circle class="st2" cx="-15.7" cy="0.4" r="1.9"/>
	<polyline class="st2" points="-11.6,2.3 -10.7,3.2 -8.8,1.3 	"/>
</g>
</svg>
