<?xml version="1.0" encoding="utf-8"?>
<!-- Generator: Adobe Illustrator 26.4.1, SVG Export Plug-In . SVG Version: 6.00 Build 0)  -->
<svg version="1.1" id="Capa_1" xmlns="http://www.w3.org/2000/svg" xmlns:xlink="http://www.w3.org/1999/xlink" x="0px" y="0px"
	 viewBox="0 0 12 12" style="enable-background:new 0 0 12 12;" xml:space="preserve">
<style type="text/css">
	.st0{fill:none;}
	.st1{fill:#0052FE;}
</style>
<path class="st0" d="M-2-2.5"/>
<path class="st0" d="M-2-2.5"/>
<path class="st0" d="M-0.4,0.5"/>
<g>
	<path class="st1" d="M4.7,3.7l0.5-0.5v4.1C5.2,7.7,5.6,8,6,8s0.8-0.3,0.8-0.8V3.2l0.5,0.5c0.1,0.1,0.3,0.2,0.5,0.2s0.4-0.1,0.5-0.2
		c0.3-0.3,0.3-0.8,0-1.1L6.5,0.8C6.5,0.8,6.4,0.7,6.3,0.7c-0.2-0.1-0.4-0.1-0.6,0c-0.1,0-0.2,0.1-0.2,0.2L3.7,2.6
		c-0.3,0.3-0.3,0.8,0,1.1S4.4,4,4.7,3.7z"/>
	<path class="st1" d="M10,4.9c-0.4,0-0.8,0.3-0.8,0.8v3.2H2.8V5.6c0-0.4-0.3-0.8-0.8-0.8S1.2,5.2,1.2,5.6v4c0,0.4,0.3,0.8,0.8,0.8h8
		c0.4,0,0.8-0.3,0.8-0.8v-4C10.8,5.2,10.4,4.9,10,4.9z"/>
</g>
</svg>
