<?xml version="1.0" encoding="utf-8"?>
<!-- Generator: Adobe Illustrator 26.4.1, SVG Export Plug-In . SVG Version: 6.00 Build 0)  -->
<svg version="1.1" id="Capa_1" xmlns="http://www.w3.org/2000/svg" xmlns:xlink="http://www.w3.org/1999/xlink" x="0px" y="0px"
	 viewBox="0 0 47.2 32.2" style="enable-background:new 0 0 47.2 32.2;" xml:space="preserve">
<style type="text/css">
	.st0{fill:#48358C;}
</style>
<g id="ypGT0S">
	<g>
		<path class="st0" d="M8.2,27.3c6.2,0,12.1,0,18,0c1.4,0,2.3,0.4,3,1.6c0.6,1.1,1.5,2.1,2.3,3.2H0C5.9,21.4,11.8,10.8,17.8,0
			c1,1.5,1.9,2.7,2.7,4.1c0.2,0.3,0,1.1-0.2,1.5c-2.5,4.7-5.1,9.4-7.7,14C11.1,22.1,9.8,24.6,8.2,27.3L8.2,27.3z"/>
		<path class="st0" d="M47.2,32.2c-1.9,0-3.4,0.1-5,0c-0.4,0-1-0.6-1.2-1.1c-3.5-6.3-7-12.6-10.5-18.9c-0.3-0.5-0.6-1.1-1-1.8
			c-1,1.8-1.9,3.5-2.8,5.1c-1.2,2.2-2.4,4.4-3.7,6.5c-0.3,0.4-1,0.8-1.5,0.9c-1.4,0.1-2.9,0-4.6,0c4.2-7.6,8.3-15.1,12.6-22.7
			C35.4,10.9,41.3,21.4,47.2,32.2z"/>
	</g>
</g>
</svg>
