<?xml version="1.0" encoding="utf-8"?>
<!-- Generator: Adobe Illustrator 26.4.1, SVG Export Plug-In . SVG Version: 6.00 Build 0)  -->
<svg version="1.1" id="Capa_1" xmlns="http://www.w3.org/2000/svg" xmlns:xlink="http://www.w3.org/1999/xlink" x="0px" y="0px"
	 viewBox="0 0 199.3 32" style="enable-background:new 0 0 199.3 32;" xml:space="preserve">
<style type="text/css">
	.st0{fill:#FFFFFF;}
</style>
<g>
	<path class="st0" d="M70.5,32H57.7c-2.1,0-3.2-1.1-3.2-3.2V8h4.8v19.2h11.2V32z"/>
	<path class="st0" d="M84.9,19.2h-6.4V32h-4.8V17.6c0-2.1,1.1-3.2,3.2-3.2h20.8c2.1,0,3.2,1.1,3.2,3.2V32h-4.8l0-12.8h-6.4V32h-4.8
		V19.2z"/>
	<path class="st0" d="M132.9,8v4.8h-6.4V32h-4.8V12.8h-6.4V8H132.9z"/>
	<path class="st0" d="M155.3,17.6v4.8c0,2.1-1.1,3.2-3.2,3.2h-9.6v-4.8h8v-1.6h-9.6v8h11.2l-1.6,4.8h-11.2c-2.1,0-3.2-1.1-3.2-3.2
		V17.6c0-2.1,1.1-3.2,3.2-3.2h12.8C154.2,14.4,155.3,15.5,155.3,17.6z"/>
	<path class="st0" d="M172.9,19.2h-9.6v8h11.2V32h-12.8c-2.1,0-3.2-1.1-3.2-3.2V17.6c0-2.1,1.1-3.2,3.2-3.2h12.8L172.9,19.2z"/>
	<path class="st0" d="M177.6,32V8h4.8v6.4h11.2c2.1,0,3.2,1.1,3.2,3.2V32H192V19.2h-9.6V32H177.6z"/>
</g>
<g id="ypGT0S_00000165216839275690187940000000056859154976529035_">
	<g>
		<path class="st0" d="M8.2,27.2c6.2,0,12.1,0,18,0c1.4,0,2.3,0.4,3,1.6c0.6,1.1,1.4,2.1,2.3,3.3C21,32,10.6,32,0,32
			C5.9,21.3,11.8,10.7,17.8-0.1c1,1.5,1.9,2.7,2.7,4.1c0.2,0.3,0,1-0.2,1.5c-2.6,4.7-5.1,9.4-7.7,14C11.1,22,9.8,24.5,8.2,27.2z"/>
		<path class="st0" d="M47.2,32.1c-1.9,0-3.4,0.1-5-0.1c-0.4,0-1-0.6-1.2-1.1c-3.5-6.3-7-12.6-10.5-18.9c-0.3-0.5-0.6-1.1-1-1.8
			c-1,1.8-1.9,3.5-2.8,5.1c-1.2,2.2-2.4,4.4-3.7,6.5c-0.3,0.4-1,0.8-1.5,0.9c-1.4,0.1-2.9,0-4.6,0C21.1,15.1,25.3,7.7,29.5,0
			C35.4,10.8,41.3,21.3,47.2,32.1z"/>
	</g>
</g>
</svg>
