<?xml version="1.0" encoding="UTF-8"?>
<svg id="Capa_1" data-name="Capa 1" xmlns="http://www.w3.org/2000/svg" viewBox="0 0 196.84 32.25">
  <defs>
    <style>
      .cls-1 {
        fill: #48358c;
      }

      .cls-2 {
        fill: #1d1d1b;
      }
    </style>
  </defs>
  <g>
    <path class="cls-2" d="M70.52,32.12h-12.79c-2.13,0-3.2-1.07-3.2-3.2V8.14h4.8V27.33h11.19v4.8Z"/>
    <path class="cls-2" d="M84.93,19.33h-6.41v12.79h-4.8v-14.39c0-2.13,1.07-3.2,3.2-3.2h20.77c2.13,0,3.2,1.07,3.2,3.2v14.39h-4.78l-.02-12.79h-6.36v12.79h-4.8v-12.79Z"/>
    <path class="cls-2" d="M132.88,8.14v4.8h-6.4v19.19h-4.8V12.94h-6.4v-4.8h17.59Z"/>
    <path class="cls-2" d="M155.26,17.73v4.8c0,2.13-1.07,3.2-3.2,3.2h-9.59v-4.8h7.99v-1.6h-9.59v7.99h11.18l-1.57,4.8h-11.21c-2.13,0-3.2-1.07-3.2-3.2v-11.19c0-2.13,1.07-3.2,3.2-3.2h12.79c2.13,0,3.2,1.07,3.2,3.2Z"/>
    <path class="cls-2" d="M172.85,19.33h-9.59v7.99h11.19v4.8h-12.79c-2.13,0-3.2-1.07-3.2-3.2v-11.19c0-2.13,1.07-3.2,3.2-3.2h12.79l-1.6,4.8Z"/>
    <path class="cls-2" d="M177.65,32.12V8.14h4.8v6.4h11.19c2.13,0,3.2,1.07,3.2,3.2v14.39h-4.8v-12.79h-9.59v12.79h-4.8Z"/>
  </g>
  <g id="ypGT0S">
    <g>
      <path class="cls-1" d="M8.25,27.34c6.23,0,12.14,.05,18.04-.04,1.4-.02,2.27,.4,2.97,1.57,.64,1.08,1.45,2.06,2.31,3.25H0C5.93,21.4,11.79,10.8,17.77,0c1,1.48,1.93,2.74,2.69,4.09,.2,.34,.01,1.05-.22,1.47-2.55,4.69-5.15,9.36-7.73,14.04-1.37,2.48-2.74,4.96-4.27,7.74Z"/>
      <path class="cls-1" d="M47.25,32.22c-1.86,0-3.43,.08-4.98-.05-.44-.04-.96-.64-1.23-1.1-3.52-6.3-7-12.62-10.49-18.93-.29-.53-.61-1.05-1.05-1.81-1,1.82-1.89,3.49-2.81,5.13-1.22,2.17-2.41,4.36-3.71,6.48-.27,.44-.96,.84-1.48,.89-1.44,.12-2.89,.04-4.59,.04C21.14,15.25,25.26,7.81,29.51,.15c5.93,10.72,11.75,21.24,17.74,32.07Z"/>
    </g>
  </g>
</svg>