<?xml version="1.0" encoding="utf-8"?>
<!-- Generator: Adobe Illustrator 26.4.1, SVG Export Plug-In . SVG Version: 6.00 Build 0)  -->
<svg version="1.1" id="Capa_1" xmlns="http://www.w3.org/2000/svg" xmlns:xlink="http://www.w3.org/1999/xlink" x="0px" y="0px"
	 viewBox="0 0 100 100" style="enable-background:new 0 0 100 100;" xml:space="preserve">
<style type="text/css">
	.st0{fill:#3CFFFB;}
</style>
<g id="ekubPF.tif_00000097479920382595668300000016870569546970470072_">
	<g>
		<path class="st0" d="M0,72.8C0,51.7,0,30.7,0,9.6c0,0,0.1-0.1,0.1-0.1c0.6-2.5,2.4-4,5-4c28.4,0,56.8,0,85.1,0
			c0.4,0,0.8,0,1.2,0.1c1.9,0.4,3.9,2.3,3.9,5c-0.1,9.2,0,18.3,0,27.5c0,0.2,0,0.4,0,0.7c0.3,0,0.5,0.1,0.7,0.1
			c1.1,0.2,2.1,0.6,2.8,1.4c1,1,1.2,2.3,1.2,3.6c0,15.7,0,31.4,0,47.1c0,0.2,0,0.5,0,0.7c-0.1,1.7-0.9,3.1-2.5,3.8
			c-0.8,0.4-1.7,0.5-2.6,0.5c-7.7,0-15.4,0-23.1,0c-0.3,0-0.6,0-0.9,0c-2.1-0.2-3.8-1.6-4.2-3.6c-0.1-0.4-0.1-0.7-0.1-1.1
			c-14.3,0-28.5,0-42.8,0c0-0.1-0.1-0.1,0-0.2c0.1-2.8,2-4.6,4.8-4.6c3,0,5.9,0,8.9,0c0.2,0,0.4,0,0.5,0c0-3.2,0-6.3,0-9.5
			c-0.3,0-0.5,0-0.7,0c-10.8,0-21.5,0-32.3,0c-1.6,0-2.9-0.6-3.9-1.8C0.5,74.5,0.2,73.7,0,72.8z M90.5,38.8c0-9.6,0-19,0-28.5
			c-28.6,0-57.1,0-85.7,0c0,19.1,0,38.1,0,57.1c20.6,0,41.2,0,61.9,0c0-0.3,0-0.5,0-0.7c0-7.6,0-15.2,0-22.8c0-1.1,0.1-2.1,0.8-3.1
			c1-1.4,2.5-2,4.2-2c6.1,0,12.1,0,18.2,0C90.1,38.8,90.3,38.8,90.5,38.8z M95.2,81.7c0-12.7,0-25.4,0-38c-7.9,0-15.8,0-23.7,0
			c0,12.7,0,25.4,0,38C79.4,81.7,87.3,81.7,95.2,81.7z M57.2,86.4c3.2,0,6.3,0,9.5,0c0-3.2,0-6.3,0-9.5c-3.2,0-6.3,0-9.5,0
			C57.2,80.1,57.2,83.3,57.2,86.4z M83.4,86.5c-1.3,0-2.4,1.1-2.4,2.4c0,1.3,1,2.4,2.3,2.4c1.3,0,2.4-1.1,2.4-2.4
			C85.7,87.6,84.7,86.5,83.4,86.5z"/>
	</g>
</g>
</svg>
