<?xml version="1.0" encoding="utf-8"?>
<!-- Generator: Adobe Illustrator 26.4.1, SVG Export Plug-In . SVG Version: 6.00 Build 0)  -->
<svg version="1.1" id="Capa_1" xmlns="http://www.w3.org/2000/svg" xmlns:xlink="http://www.w3.org/1999/xlink" x="0px" y="0px"
	 viewBox="0 0 100 100" style="enable-background:new 0 0 100 100;" xml:space="preserve">
<style type="text/css">
	.st0{fill:#3CFFFB;}
</style>
<path class="st0" d="M82.7,69.4c-3,0-5.9,1-8.1,2.8L60.6,58c1.8-2.2,2.8-5.1,2.8-8.1c0-1.5-0.3-3-0.7-4.2l14.6-7.1
	c1.8,2.7,5,4.3,8.5,4.3c5.7,0,10.4-4.6,10.4-10.4S91.5,22,85.7,22c-5.7,0-10.4,4.6-10.4,10.4c0,1,0.2,2,0.5,3l-14.6,7.2
	c-2-3.1-5.4-5.3-9.1-5.9v-4.8c2.5-0.8,4.2-3.2,4.2-6c0-3.5-2.9-6.3-6.3-6.3c-3.5,0-6.3,2.9-6.3,6.3c0,3,2.1,5.4,4.9,6.1v4.5
	c-2.6,0.3-4.9,1.3-6.8,2.8L30.3,27.6c1.9-2.5,3.1-5.5,3.1-8.9c0-8.1-6.5-14.8-14.8-14.8S3.9,10.4,3.9,18.6s6.5,14.8,14.8,14.8
	c3.5,0,6.7-1.2,9.2-3.2L39.3,42c-1.7,2.2-2.7,5.1-2.7,8c0,3.1,1,6,2.9,8.2l-19.1,19c-1.7-1.2-3.8-1.9-6.1-1.9
	c-5.7,0-10.4,4.6-10.4,10.4c0,5.7,4.6,10.4,10.4,10.4c5.7,0,10.4-4.6,10.4-10.4c0-2.2-0.7-4.3-1.9-6.1l19.1-19.1
	c2.2,1.8,5.1,2.8,8.1,2.8s5.9-1,8.2-2.8l14.1,14.1c-1.8,2.2-2.8,5.1-2.8,8.1c0,7.4,6,13.4,13.4,13.4c7.4,0,13.2-6.1,13.2-13.5
	C96.1,75.3,90.1,69.4,82.7,69.4z"/>
</svg>
