<?xml version="1.0" encoding="utf-8"?>
<!-- Generator: Adobe Illustrator 26.4.1, SVG Export Plug-In . SVG Version: 6.00 Build 0)  -->
<svg version="1.1" id="Capa_1" xmlns="http://www.w3.org/2000/svg" xmlns:xlink="http://www.w3.org/1999/xlink" x="0px" y="0px"
	 viewBox="0 0 12 12" style="enable-background:new 0 0 12 12;" xml:space="preserve">
<style type="text/css">
	.st0{fill:#0052FE;}
</style>
<path class="st0" d="M11,10L8.6,7.5C9.1,6.8,9.4,6,9.4,5.1c0-2.4-1.9-4.3-4.3-4.3c-2.4,0-4.3,1.9-4.3,4.3c0,2.4,1.9,4.3,4.3,4.3
	c0.9,0,1.8-0.3,2.5-0.8L10,11c0.1,0.1,0.3,0.2,0.5,0.2s0.4-0.1,0.5-0.2C11.3,10.8,11.3,10.3,11,10z M2.2,5.1c0-1.6,1.3-2.8,2.8-2.8
	s2.8,1.3,2.8,2.8S6.6,7.9,5.1,7.9S2.2,6.6,2.2,5.1z"/>
</svg>
